<svg width="2612" height="581" viewBox="0 0 2612 581" fill="none" xmlns="http://www.w3.org/2000/svg">
<path d="M51.3682 0L0 3.58554e-06V558.442C0 570.473 12.0277 580.248 27.814 580.248C42.8486 580.248 55.628 570.473 55.628 558.442L51.3682 0Z" fill="black"/>
<path d="M458.003 558.442C458.003 558.442 458.754 471.969 458.754 343.387C458.754 215.557 356.519 111.037 230.98 111.037C105.442 111.037 3.20659 215.557 3.20659 343.387C3.20659 471.969 3.95832 558.442 3.95832 558.442C3.95832 570.473 15.986 580.248 31.7723 580.248C47.5586 580.248 59.5863 570.473 59.5863 558.442C59.5863 558.442 59.5863 431.364 59.5863 341.883C59.5863 252.402 136.263 172.696 230.98 172.696C325.698 172.696 402.375 252.402 402.375 341.883C402.375 431.364 402.375 558.442 402.375 558.442C402.375 570.473 414.402 580.248 430.189 580.248C445.975 580.248 458.003 570.473 458.003 558.442Z" fill="black"/>
<path d="M1001.24 558.442C1001.24 558.442 1002 471.969 1002 343.387C1002 215.557 899.761 111.037 774.222 111.037C648.683 111.037 546.448 215.557 546.448 343.387C546.448 471.969 547.2 558.442 547.2 558.442C547.2 570.473 559.228 580.248 575.014 580.248C590.8 580.248 602.828 570.473 602.828 558.442C602.828 558.442 602.828 431.364 602.828 341.883C602.828 252.402 679.504 172.696 774.222 172.696C868.94 172.696 945.616 252.402 945.616 341.883C945.616 431.364 945.616 558.442 945.616 558.442C945.616 570.473 957.644 580.248 973.43 580.248C989.217 580.248 1001.24 570.473 1001.24 558.442Z" fill="black"/>
<path d="M1523.44 118.556C1523.44 118.556 1437.74 118.556 1310.7 118.556C1182.9 118.556 1079.92 222.324 1079.92 349.402C1079.92 477.232 1182.9 581 1310.7 581C1437.74 581 1523.44 580.248 1523.44 580.248C1535.47 580.248 1545.99 568.217 1545.99 552.426C1545.99 536.635 1535.47 524.604 1523.44 524.604C1523.44 524.604 1397.9 524.604 1309.19 524.604C1220.49 524.604 1141.56 445.651 1141.56 349.402C1141.56 253.154 1220.49 174.952 1309.19 174.952C1397.9 174.952 1523.44 174.952 1523.44 174.952C1535.47 174.952 1545.99 162.169 1545.99 147.13C1545.99 131.339 1535.47 118.556 1523.44 118.556Z" fill="black"/>
<path d="M1678.96 347.898C1678.96 256.913 1760.15 177.208 1860.13 177.208C1959.36 177.208 2040.55 256.913 2040.55 347.898C2040.55 438.131 1959.36 518.589 1860.13 518.589C1760.15 518.589 1678.96 438.131 1678.96 347.898ZM1620.33 347.898C1620.33 476.48 1727.83 580.248 1860.13 580.248C1991.68 580.248 2099.18 476.48 2099.18 347.898C2099.18 219.316 1991.68 114.796 1860.13 114.796C1727.83 114.796 1620.33 219.316 1620.33 347.898Z" fill="black"/>
<path d="M2177.5 580.248V1.2533H2239.14V331.356H2359.42L2530.81 144.122H2612V144.874L2414.3 362.185L2611.25 579.496V580.248H2530.81L2359.42 393.015H2239.14V580.248H2177.5Z" fill="black"/>
</svg>
